<svg xmlns="http://www.w3.org/2000/svg">
    <symbol id="logo" width="106" height="40">
        <g class="layer">
            <title>Layer 1</title>
            <path
                d="m62.34,13.37c0.22,0 0.4,0.07 0.54,0.23c0.15,0.14 0.22,0.32 0.22,0.54c0,0.21 -0.07,0.39 -0.22,0.54c-0.14,0.15 -0.32,0.23 -0.54,0.23l-3.77,0l0,10.5c0,0.22 -0.07,0.41 -0.23,0.56c-0.14,0.14 -0.32,0.21 -0.54,0.21c-0.21,0 -0.39,-0.07 -0.54,-0.21c-0.15,-0.15 -0.23,-0.34 -0.23,-0.56l0,-10.5l-3.76,0c-0.21,0 -0.39,-0.08 -0.54,-0.23c-0.15,-0.15 -0.23,-0.33 -0.23,-0.54c0,-0.22 0.08,-0.4 0.23,-0.54c0.15,-0.16 0.33,-0.23 0.54,-0.23l9.07,0z"
                fill="#1F2041" id="svg_1" />
            <path
                d="m68.91,13.37c0.88,0 1.72,0.17 2.5,0.51c0.79,0.33 1.48,0.8 2.07,1.38c0.59,0.58 1.06,1.27 1.4,2.06c0.33,0.79 0.5,1.62 0.5,2.51c0,1.03 -0.22,1.99 -0.66,2.87c-0.45,0.87 -1.05,1.61 -1.8,2.2c0,0 -0.02,0.01 -0.04,0.04c-0.56,0.42 -1.17,0.75 -1.84,0.99c-0.66,0.24 -1.37,0.35 -2.13,0.35c-0.89,0 -1.72,-0.17 -2.5,-0.5c-0.79,-0.34 -1.47,-0.8 -2.07,-1.39c-0.58,-0.58 -1.04,-1.26 -1.38,-2.04c-0.34,-0.79 -0.51,-1.63 -0.51,-2.52c0,-0.98 0.2,-1.89 0.6,-2.72c0.39,-0.84 0.93,-1.55 1.62,-2.15l0.07,-0.07c0.01,0 0.03,-0.01 0.06,-0.03c0.56,-0.47 1.19,-0.83 1.89,-1.09c0.7,-0.27 1.44,-0.4 2.22,-0.4zm0,11.37c0.44,0 0.86,-0.05 1.26,-0.15c0.41,-0.12 0.79,-0.28 1.15,-0.48l-6.14,-7.47c-0.37,0.43 -0.66,0.92 -0.87,1.47c-0.21,0.54 -0.32,1.11 -0.32,1.72c0,0.67 0.13,1.31 0.39,1.9c0.25,0.6 0.6,1.12 1.05,1.58c0.45,0.44 0.98,0.79 1.57,1.05c0.6,0.25 1.23,0.38 1.91,0.38zm3.62,-1.59c0.41,-0.44 0.72,-0.94 0.95,-1.5c0.23,-0.58 0.35,-1.18 0.35,-1.82c0,-0.68 -0.13,-1.32 -0.39,-1.91c-0.26,-0.6 -0.61,-1.12 -1.07,-1.56c-0.44,-0.45 -0.96,-0.81 -1.55,-1.07c-0.6,-0.25 -1.24,-0.38 -1.91,-0.38c-0.47,0 -0.92,0.06 -1.35,0.19c-0.43,0.12 -0.83,0.29 -1.21,0.53l6.18,7.52z"
                fill="#1F2041" id="svg_2" />
            <path
                d="m82.35,20.63c-0.23,0 -0.43,-0.09 -0.59,-0.28l-4.5,-5.77c-0.13,-0.17 -0.18,-0.35 -0.16,-0.55c0.02,-0.21 0.12,-0.38 0.28,-0.5c0.16,-0.13 0.35,-0.18 0.54,-0.14c0.21,0.02 0.38,0.11 0.51,0.28l3.92,5l3.83,-4.92c0.13,-0.16 0.3,-0.25 0.49,-0.28c0.21,-0.02 0.4,0.03 0.56,0.16c0.17,0.13 0.26,0.3 0.28,0.51c0.03,0.2 -0.03,0.38 -0.15,0.54l-4.41,5.67c-0.16,0.19 -0.35,0.28 -0.6,0.28zm4.92,5.64c-0.05,0 -0.12,-0.01 -0.23,-0.02c-0.09,-0.01 -0.2,-0.04 -0.33,-0.09c-0.13,-0.06 -0.27,-0.13 -0.42,-0.23c-0.14,-0.1 -0.28,-0.24 -0.42,-0.42l-3.52,-4.53l-3.83,4.94c-0.13,0.16 -0.3,0.25 -0.51,0.28c-0.2,0.02 -0.38,-0.03 -0.54,-0.16c-0.16,-0.13 -0.26,-0.29 -0.28,-0.49c-0.02,-0.21 0.03,-0.4 0.16,-0.56l4.41,-5.67c0.14,-0.19 0.33,-0.28 0.57,-0.28c0.26,0 0.46,0.09 0.62,0.28l4.09,5.25c0.06,0.08 0.11,0.13 0.16,0.16c0.05,0.02 0.08,0.04 0.1,0.05c0.2,0 0.37,0.07 0.49,0.21c0.14,0.13 0.22,0.29 0.23,0.49c0.02,0.21 -0.03,0.39 -0.17,0.54c-0.14,0.15 -0.32,0.23 -0.53,0.25l-0.05,0z"
                fill="#1F2041" id="svg_3" />
            <path
                d="m91.73,26.27c-0.22,0 -0.4,-0.08 -0.56,-0.23c-0.15,-0.15 -0.22,-0.34 -0.22,-0.56l0,-11.38c0,-0.21 0.07,-0.39 0.22,-0.54c0.16,-0.15 0.34,-0.23 0.56,-0.23c0.21,0 0.4,0.08 0.55,0.23c0.15,0.15 0.22,0.33 0.22,0.54l0,11.38c0,0.22 -0.07,0.41 -0.22,0.56c-0.15,0.15 -0.34,0.23 -0.55,0.23z"
                fill="#1F2041" id="svg_4" />
            <path
                d="m104.94,26.23c-0.26,0 -0.46,-0.1 -0.6,-0.3l-7.29,-9.59l0,9.14c0,0.21 -0.08,0.39 -0.23,0.54c-0.14,0.14 -0.32,0.21 -0.53,0.21c-0.2,0 -0.37,-0.07 -0.52,-0.21c-0.15,-0.15 -0.23,-0.33 -0.23,-0.54l0,-11.36c0,-0.16 0.05,-0.31 0.14,-0.44c0.09,-0.13 0.22,-0.21 0.39,-0.26c0.15,-0.06 0.3,-0.06 0.45,-0.02c0.15,0.05 0.28,0.14 0.39,0.27l7.28,9.6l0,-9.15c0,-0.2 0.06,-0.37 0.2,-0.52c0.16,-0.16 0.34,-0.23 0.55,-0.23c0.21,0 0.38,0.07 0.52,0.23c0.15,0.15 0.23,0.32 0.23,0.52l0,11.36c0,0.16 -0.05,0.31 -0.14,0.44c-0.09,0.12 -0.22,0.22 -0.37,0.28c-0.11,0.02 -0.2,0.03 -0.24,0.03z"
                fill="#1F2041" id="svg_5" />
            <path
                d="m20,27.06c-0.65,0 -1.18,-0.53 -1.18,-1.18c0,-4.53 -3.7,-8.23 -8.23,-8.23c-0.65,0 -1.18,-0.53 -1.18,-1.18c0,-0.65 0.53,-1.18 1.18,-1.18c5.85,0 10.59,4.74 10.59,10.59c0,0.65 -0.53,1.18 -1.18,1.18z"
                fill="url(#paint0_linear_1_845)" id="svg_6" />
            <path
                d="m30.59,16.47c0,0.65 -0.53,1.18 -1.18,1.18c-2.79,0 -5.29,1.41 -6.76,3.56c-0.33,-0.83 -0.71,-1.59 -1.18,-2.3c1.94,-2.23 4.79,-3.62 7.94,-3.62c0.65,0 1.18,0.53 1.18,1.18z"
                fill="url(#paint1_linear_1_845)" id="svg_7" />
            <path
                d="m20,40c-11.03,0 -20,-8.97 -20,-20c0,-11.03 8.97,-20 20,-20c11.03,0 20,8.97 20,20c0,11.03 -8.97,20 -20,20zm0,-37.65c-9.74,0 -17.65,7.91 -17.65,17.65c0,9.74 7.91,17.65 17.65,17.65c9.74,0 17.65,-7.91 17.65,-17.65c0,-9.74 -7.91,-17.65 -17.65,-17.65z"
                fill="url(#paint0_linear_1_845)" id="svg_8" />
        </g>
    </symbol>

    <symbol id="insta" width="22" height="22" viewBox="0 0 22 22">
        <path
            d="M11 5.60938C10.0312 5.60938 9.125 5.85937 8.28125 6.35938C7.46875 6.82812 6.8125 7.48438 6.3125 8.32812C5.84375 9.14062 5.60938 10.0312 5.60938 11C5.60938 11.9688 5.84375 12.875 6.3125 13.7188C6.8125 14.5312 7.46875 15.1875 8.28125 15.6875C9.125 16.1562 10.0312 16.3906 11 16.3906C11.9688 16.3906 12.8594 16.1562 13.6719 15.6875C14.5156 15.1875 15.1719 14.5312 15.6406 13.7188C16.1406 12.875 16.3906 11.9688 16.3906 11C16.3906 10.0312 16.1406 9.14062 15.6406 8.32812C15.1719 7.48438 14.5156 6.82812 13.6719 6.35938C12.8594 5.85937 11.9688 5.60938 11 5.60938ZM11 14.5156C10.0312 14.5156 9.20312 14.1719 8.51562 13.4844C7.82812 12.7969 7.48438 11.9688 7.48438 11C7.48438 10.0312 7.82812 9.20312 8.51562 8.51562C9.20312 7.82812 10.0312 7.48438 11 7.48438C11.9688 7.48438 12.7969 7.82812 13.4844 8.51562C14.1719 9.20312 14.5156 10.0312 14.5156 11C14.5156 11.9688 14.1719 12.7969 13.4844 13.4844C12.7969 14.1719 11.9688 14.5156 11 14.5156ZM17.8906 5.375C17.8594 5.71875 17.7188 6.01563 17.4688 6.26562C17.25 6.51562 16.9688 6.64062 16.625 6.64062C16.2812 6.64062 15.9844 6.51562 15.7344 6.26562C15.4844 6.01563 15.3594 5.71875 15.3594 5.375C15.3594 5.03125 15.4844 4.73437 15.7344 4.48438C15.9844 4.23438 16.2812 4.10938 16.625 4.10938C16.9688 4.10938 17.2656 4.23438 17.5156 4.48438C17.7656 4.73437 17.8906 5.03125 17.8906 5.375ZM21.4531 6.64062C21.3906 5.73438 21.25 4.95312 21.0312 4.29688C20.75 3.51562 20.3125 2.84375 19.7188 2.28125C19.1562 1.6875 18.4844 1.25 17.7031 0.96875C17.0469 0.75 16.2656 0.625 15.3594 0.59375C14.4844 0.53125 13.0312 0.5 11 0.5C8.96875 0.5 7.5 0.53125 6.59375 0.59375C5.71875 0.625 4.95312 0.75 4.29688 0.96875C3.51562 1.25 2.82812 1.6875 2.23438 2.28125C1.67188 2.84375 1.25 3.51562 0.96875 4.29688C0.75 4.95312 0.609375 5.73438 0.546875 6.64062C0.515625 7.51562 0.5 8.96875 0.5 11C0.5 13.0312 0.515625 14.5 0.546875 15.4062C0.609375 16.2812 0.75 17.0469 0.96875 17.7031C1.25 18.4844 1.67188 19.1719 2.23438 19.7656C2.82812 20.3281 3.51562 20.7344 4.29688 20.9844C4.95312 21.2344 5.71875 21.375 6.59375 21.4062C7.5 21.4688 8.96875 21.5 11 21.5C13.0312 21.5 14.4844 21.4688 15.3594 21.4062C16.2656 21.375 17.0469 21.25 17.7031 21.0312C18.4844 20.75 19.1562 20.3281 19.7188 19.7656C20.3125 19.1719 20.75 18.4844 21.0312 17.7031C21.25 17.0469 21.375 16.2812 21.4062 15.4062C21.4688 14.5 21.5 13.0312 21.5 11C21.5 8.96875 21.4844 7.51562 21.4531 6.64062ZM19.2031 17.1875C18.8281 18.125 18.1562 18.7969 17.1875 19.2031C16.6875 19.3906 15.8438 19.5156 14.6562 19.5781C14 19.6094 13.0312 19.625 11.75 19.625H10.25C9 19.625 8.03125 19.6094 7.34375 19.5781C6.1875 19.5156 5.34375 19.3906 4.8125 19.2031C3.875 18.8281 3.20312 18.1562 2.79688 17.1875C2.60938 16.6562 2.48438 15.8125 2.42188 14.6562C2.39062 13.9688 2.375 13 2.375 11.75V10.25C2.375 9 2.39062 8.03125 2.42188 7.34375C2.48438 6.15625 2.60938 5.3125 2.79688 4.8125C3.17188 3.84375 3.84375 3.17188 4.8125 2.79688C5.34375 2.60938 6.1875 2.48437 7.34375 2.42188C8.03125 2.39062 9 2.375 10.25 2.375H11.75C13 2.375 13.9688 2.39062 14.6562 2.42188C15.8438 2.48437 16.6875 2.60938 17.1875 2.79688C18.1562 3.17188 18.8281 3.84375 19.2031 4.8125C19.3906 5.3125 19.5156 6.15625 19.5781 7.34375C19.6094 8 19.625 8.96875 19.625 10.25V11.75C19.625 13 19.6094 13.9688 19.5781 14.6562C19.5156 15.8125 19.3906 16.6562 19.2031 17.1875Z"
            fill="url(#paint0_linear_18370_9)" />
    </symbol>

    <symbol id="facebook" width="22" height="22" viewBox="0 0 22 22">
        <path
            d="M21.5 2.75V19.25C21.5 19.875 21.2812 20.4062 20.8438 20.8438C20.4062 21.2812 19.875 21.5 19.25 21.5H15.2656V13.2031H18.0781L18.5 10.0156H15.2656V8C15.2656 7.5 15.3594 7.125 15.5469 6.875C15.7969 6.59375 16.2188 6.45312 16.8125 6.45312H18.5V3.64062C17.8438 3.54688 17.0312 3.5 16.0625 3.5C14.8125 3.5 13.8125 3.875 13.0625 4.625C12.3438 5.34375 11.9844 6.35938 11.9844 7.67188V10.0156H9.125V13.2031H11.9844V21.5H2.75C2.125 21.5 1.59375 21.2812 1.15625 20.8438C0.71875 20.4062 0.5 19.875 0.5 19.25V2.75C0.5 2.125 0.71875 1.59375 1.15625 1.15625C1.59375 0.71875 2.125 0.5 2.75 0.5H19.25C19.875 0.5 20.4062 0.71875 20.8438 1.15625C21.2812 1.59375 21.5 2.125 21.5 2.75Z"
            fill="url(#paint0_linear_18370_9)" />
    </symbol>

    <symbol id="twitter" width="24" height="20" viewBox="0 0 24 20">
        <path
            d="M21.5156 5.125C21.5469 5.25 21.5625 5.45312 21.5625 5.73438C21.5625 7.98438 21.0156 10.1562 19.9219 12.25C18.7969 14.4688 17.2188 16.2344 15.1875 17.5469C12.9688 19.0156 10.4219 19.75 7.54688 19.75C4.79688 19.75 2.28125 19.0156 0 17.5469C0.34375 17.5781 0.734375 17.5938 1.17188 17.5938C3.45312 17.5938 5.5 16.8906 7.3125 15.4844C6.21875 15.4844 5.25 15.1719 4.40625 14.5469C3.59375 13.8906 3.03125 13.0781 2.71875 12.1094C3.03125 12.1406 3.32812 12.1562 3.60938 12.1562C4.04688 12.1562 4.48438 12.1094 4.92188 12.0156C3.79688 11.7656 2.85938 11.1875 2.10938 10.2812C1.35938 9.375 0.984375 8.34375 0.984375 7.1875V7.09375C1.67188 7.5 2.40625 7.71875 3.1875 7.75C2.53125 7.28125 2 6.6875 1.59375 5.96875C1.1875 5.25 0.984375 4.46875 0.984375 3.625C0.984375 2.75 1.21875 1.92188 1.6875 1.14062C2.90625 2.67188 4.39062 3.89063 6.14062 4.79688C7.92188 5.70312 9.8125 6.20312 11.8125 6.29688C11.75 5.92188 11.7188 5.54688 11.7188 5.17188C11.7188 4.29687 11.9375 3.48438 12.375 2.73438C12.8125 1.95312 13.4062 1.34375 14.1562 0.90625C14.9062 0.46875 15.7188 0.25 16.5938 0.25C17.3125 0.25 17.9688 0.390625 18.5625 0.671875C19.1875 0.953125 19.7344 1.32812 20.2031 1.79688C21.3281 1.57812 22.375 1.1875 23.3438 0.625C22.9688 1.78125 22.25 2.6875 21.1875 3.34375C22.125 3.21875 23.0625 2.95313 24 2.54688C23.3125 3.54687 22.4844 4.40625 21.5156 5.125Z"
            fill="url(#paint0_linear_18370_8)" />
    </symbol>

    <symbol id="arrow" width="12" height="8" viewBox="0 0 12 8">
        <path d="M10.5938 0.578125L12 1.98438L6 7.98438L0 1.98438L1.40625 0.578125L6 5.17188L10.5938 0.578125Z"
            fill="#1F2041" fill-opacity="0.5" />
    </symbol>

    <symbol id="arrow-forward" width="18" height="18" viewBox="0 0 18 18">
        <path
            d="M9 0.984375L17.0156 9L9 17.0156L7.59375 15.6094L13.1719 9.98438H0.984375V8.01562H13.1719L7.59375 2.39062L9 0.984375Z"
            fill="url(#paint0_linear_142502_192)" />
    </symbol>


    <defs>
        <linearGradient id="paint0_linear_142502_192" x1="9" y1="-13" x2="9" y2="31" gradientUnits="userSpaceOnUse">
            <stop stop-color="#BC9CFF" />
            <stop offset="1" stop-color="#8BA4F9" />
        </linearGradient>
        <linearGradient id="paint0_linear_18370_8" x1="12" y1="-2" x2="12" y2="22" gradientUnits="userSpaceOnUse">
            <stop stop-color="#BC9CFF" />
            <stop offset="1" stop-color="#8BA4F9" />
        </linearGradient>
        <linearGradient id="paint0_linear_18370_9" x1="11" y1="-1" x2="11" y2="23" gradientUnits="userSpaceOnUse">
            <stop stop-color="#BC9CFF" />
            <stop offset="1" stop-color="#8BA4F9" />
        </linearGradient>
        <linearGradient id="paint0_linear_1_845" x1="0.5" x2="0.5" y1="0" y2="1">
            <stop stop-color="#BC9CFF" />
            <stop offset="1" stop-color="#8BA4F9" />
        </linearGradient>
        <linearGradient id="paint1_linear_1_845" x1="0.5" x2="0.5" y1="0" y2="1">
            <stop stop-color="#6FCF97" />
            <stop offset="1" stop-color="#66D2EA" />
        </linearGradient>
    </defs>
</svg>